<?xml version="1.0" encoding="utf-8"?>
<svg width="16px" height="16px" viewBox="0 0 16 16" version="1.1" xmlns:xlink="http://www.w3.org/1999/xlink" xmlns="http://www.w3.org/2000/svg">
  <desc>Created with Lunacy</desc>
  <g id="Icon/clock">
    <g id="Group" transform="translate(0.6666667 0.6666667)">
      <path d="M7.33333 14.6667C11.3834 14.6667 14.6667 11.3834 14.6667 7.33333C14.6667 3.28325 11.3834 0 7.33333 0C3.28325 0 0 3.28325 0 7.33333C0 11.3834 3.28325 14.6667 7.33333 14.6667Z" id="Oval" fill="none" stroke="#FFFFFF" stroke-width="1" />
      <path d="M3.33333 3.33333L0 0" transform="translate(8 8)" id="Shape" fill="none" stroke="#FFFFFF" stroke-width="1" />
      <path d="M0.666667 1.33333C1.03486 1.33333 1.33333 1.03486 1.33333 0.666667C1.33333 0.298477 1.03486 0 0.666667 0C0.298477 0 0 0.298477 0 0.666667C0 1.03486 0.298477 1.33333 0.666667 1.33333Z" transform="translate(6.666667 6.666667)" id="Oval" fill="none" stroke="#FFFFFF" stroke-width="1" />
      <path d="M0 0L0 2.66667" transform="translate(7.333333 4)" id="Shape" fill="none" stroke="#FFFFFF" stroke-width="1" />
    </g>
  </g>
</svg>