<?xml version="1.0" encoding="utf-8"?>
<svg width="24px" height="24px" viewBox="0 0 24 24" version="1.1" xmlns:xlink="http://www.w3.org/1999/xlink" xmlns="http://www.w3.org/2000/svg">
  <desc>Created with Lunacy</desc>
  <g id="Icon/facebook">
    <path d="M19.55 14.56C19.5195 14.8125 19.3043 15.0018 19.05 15L17 15C16.7239 15 16.5 15.2239 16.5 15.5L16.5 23.5C16.5 23.7761 16.7239 24 17 24L23 24C23.5523 24 24 23.5523 24 23L24 1C24 0.447715 23.5523 3.38177e-17 23 0L1 0C0.447715 -3.38177e-17 6.76354e-17 0.447715 0 1L0 23C6.76354e-17 23.5523 0.447715 24 1 24L12 24C12.2761 24 12.5 23.7761 12.5 23.5L12.5 15.5C12.5 15.2239 12.2761 15 12 15L10 15C9.72386 15 9.5 14.7761 9.5 14.5L9.5 11.5C9.5 11.2239 9.72386 11 10 11L12 11C12.2761 11 12.5 10.7761 12.5 10.5L12.5 9.19C12.5 6.0475 15.0475 3.5 18.19 3.5L19.5 3.5C19.6326 3.5 19.7598 3.55268 19.8536 3.64645C19.9473 3.74021 20 3.86739 20 4L20 7C20 7.27614 19.7761 7.5 19.5 7.5L18.19 7.5C17.2566 7.5 16.5 8.25664 16.5 9.19L16.5 10.5C16.5 10.7761 16.7239 11 17 11L19.43 11C19.5737 10.999 19.7109 11.0598 19.8066 11.167C19.9023 11.2742 19.9472 11.4173 19.93 11.56L19.55 14.56Z" id="Shape" fill="#FFFFFF" stroke="none" />
  </g>
</svg>