<?xml version="1.0" encoding="utf-8"?>
<svg width="24px" height="24px" viewBox="0 0 24 24" version="1.1" xmlns:xlink="http://www.w3.org/1999/xlink" xmlns="http://www.w3.org/2000/svg">
  <desc>Created with Lunacy</desc>
  <g id="Icon/Linkedin">
    <path d="M3.13043 6C4.85933 6 6.26087 4.65685 6.26087 3C6.26087 1.34315 4.85933 0 3.13043 0C1.40154 0 0 1.34315 0 3C0 4.65685 1.40154 6 3.13043 6ZM23.398 24L19.786 24C19.4535 24 19.1839 23.7376 19.1839 23.4139L19.1839 14.6225C19.1839 13.0041 17.8363 11.692 16.1739 11.692C14.5115 11.692 13.1639 13.0041 13.1639 14.6225L13.1639 23.4139C13.1639 23.7376 12.8944 24 12.5619 24L8.94983 24C8.61735 24 8.34783 23.7376 8.34783 23.4139L8.34783 8.17549C8.34783 7.8518 8.61735 7.5894 8.94983 7.5894L12.5619 7.5894C12.8944 7.5894 13.1639 7.8518 13.1639 8.17549C13.163 8.37654 13.2908 8.55685 13.4842 8.62745C13.6776 8.69804 13.8956 8.644 14.0308 8.49198C15.0299 7.49313 16.4164 6.95234 17.8475 7.0033C21.4355 7.0033 24 9.1484 24 13.5675L24 23.4139C24 23.7376 23.7305 24 23.398 24ZM0.499 8Q0.449853 8 0.40165 8.00959Q0.353447 8.01918 0.308041 8.03798Q0.262635 8.05679 0.22177 8.0841Q0.180906 8.1114 0.146154 8.14615Q0.111401 8.18091 0.0840967 8.22177Q0.0567919 8.26263 0.0379841 8.30804Q0.0191763 8.35345 0.00958814 8.40165Q0 8.44985 0 8.499L0 23.501Q0 23.5501 0.00958814 23.5983Q0.0191763 23.6465 0.0379841 23.692Q0.0567919 23.7374 0.0840967 23.7782Q0.111401 23.8191 0.146154 23.8538Q0.180906 23.8886 0.22177 23.9159Q0.262635 23.9432 0.308041 23.962Q0.353447 23.9808 0.40165 23.9904Q0.449853 24 0.499 24L5.76187 24Q5.81102 24 5.85922 23.9904Q5.90742 23.9808 5.95283 23.962Q5.99823 23.9432 6.0391 23.9159Q6.07996 23.8886 6.11472 23.8538Q6.14947 23.8191 6.17677 23.7782Q6.20408 23.7374 6.22288 23.692Q6.24169 23.6465 6.25128 23.5983Q6.26087 23.5501 6.26087 23.501L6.26087 8.499Q6.26087 8.44985 6.25128 8.40165Q6.24169 8.35345 6.22288 8.30804Q6.20408 8.26263 6.17677 8.22177Q6.14947 8.18091 6.11472 8.14615Q6.07996 8.1114 6.0391 8.0841Q5.99823 8.05679 5.95283 8.03798Q5.90742 8.01918 5.85922 8.00959Q5.81102 8 5.76187 8L0.499 8Z" id="Combined-Shape" fill="#FFFFFF" fill-rule="evenodd" stroke="none" />
  </g>
</svg>