<?xml version="1.0" encoding="utf-8"?>
<svg width="16px" height="16px" viewBox="0 0 16 16" version="1.1" xmlns:xlink="http://www.w3.org/1999/xlink" xmlns="http://www.w3.org/2000/svg">
  <desc>Created with Lunacy</desc>
  <g id="Icon/mark">
    <g id="Group" transform="translate(0.6666667 0.6666667)">
      <path d="M6 0L0 6" transform="translate(0 8.666667)" id="Shape" fill="#FFFFFF" fill-opacity="0" stroke="#FFFFFF" stroke-width="1" stroke-linecap="round" stroke-linejoin="round" />
      <path d="M9.99565 5.18567C10.0807 5.27073 10.196 5.31852 10.3163 5.31852C10.4366 5.31852 10.5519 5.27073 10.637 5.18567L11.1456 4.67709C11.3959 4.42665 11.3959 4.02069 11.1456 3.77025L7.56308 0.187773C7.31264 -0.062591 6.90668 -0.062591 6.65624 0.187773L6.14767 0.696349C6.0626 0.781386 6.01481 0.896736 6.01481 1.01701C6.01481 1.13729 6.0626 1.25264 6.14767 1.33768C6.23273 1.42272 6.28052 1.53807 6.28052 1.65835C6.28052 1.77862 6.23273 1.89397 6.14767 1.97901L3.44958 4.67709C3.32934 4.79737 3.16624 4.86497 2.99616 4.865L0.96186 4.865C0.791782 4.86504 0.628684 4.93263 0.508439 5.05291L0.187773 5.37358C-0.062591 5.62402 -0.062591 6.02998 0.187773 6.28042L5.05291 11.1456C5.30335 11.3959 5.70932 11.3959 5.95976 11.1456L6.28042 10.8249C6.4007 10.7047 6.4683 10.5416 6.46833 10.3715L6.46833 8.33781C6.46837 8.16773 6.53596 8.00464 6.65624 7.88439L9.35432 5.18631C9.43927 5.10116 9.55458 5.05326 9.67486 5.05314C9.79513 5.05302 9.91053 5.10069 9.99565 5.18567Z" transform="translate(3.333333 0)" id="Shape" fill="#FFFFFF" fill-opacity="0" stroke="#FFFFFF" stroke-width="1" stroke-linecap="round" stroke-linejoin="round" />
    </g>
  </g>
</svg>